<?xml version="1.0" encoding="UTF-8"?><svg id="Calque_1" xmlns="http://www.w3.org/2000/svg" viewBox="0 0 210.64 283.59"><defs><style>.cls-1{fill:#f2eb0a;}</style></defs><path class="cls-1" d="M9.15,283.59v-33.29H0v-10.94h30.84v10.94h-9.09v33.29h-12.6Z"/><path class="cls-1" d="M58.89,283.59v-17.31h-11.14v17.31h-12.53v-44.23h12.53v15.98h11.14v-15.98h12.54v44.23h-12.54Z"/><path class="cls-1" d="M77.8,283.59v-44.23h12.53v44.23h-12.53Z"/><path class="cls-1" d="M120.97,283.59l-11.87-22.75v22.75h-12.4v-44.23h12.73l11.08,21.42v-21.42h12.34v44.23h-11.87Z"/><path class="cls-1" d="M161.69,283.59l-7.43-15.12-2.52,4.44v10.68h-12.53v-44.23h12.53v17.24l9.42-17.24h14.52l-13.53,20.56,14.26,23.68h-14.72Z"/><path class="cls-1" d="M178.08,283.59v-10.08c17.84-14.79,19.56-16.51,19.56-19.96,0-2.12-1.79-3.78-4.71-3.78-3.58,0-6.63,1.53-9.35,4.38l-7.16-8.02c4.24-4.97,10.35-7.43,16.85-7.43,10.28,0,17.04,5.9,17.04,14.66,0,6.03-3.32,10.81-14.13,19.3h14.46v10.94h-32.56Z"/><circle class="cls-1" cx="47.9" cy="47.9" r="47.9"/><circle class="cls-1" cx="47.9" cy="153.91" r="47.9"/><rect class="cls-1" x="0" y="153.91" width="95.79" height="73.48"/><circle class="cls-1" cx="162.29" cy="153.91" r="47.9"/><rect class="cls-1" x="114.39" y="153.91" width="95.79" height="73.48"/><path class="cls-1" d="M60.75,74.21l-19.05.14-10.25,7.69-12.05,4.35s23.55,13.16-.12,29.15c-20.4,13.8,29.98,0,29.98,0"/><path class="cls-1" d="M60.2,73.86l16.21,12.52s-23.55,13.16.12,29.15c20.4,13.8-27.57,0-27.57,0"/><circle class="cls-1" cx="47.9" cy="47.9" r="47.9"/><circle class="cls-1" cx="47.9" cy="153.91" r="47.9"/><rect class="cls-1" x="0" y="153.91" width="95.79" height="73.48"/><circle class="cls-1" cx="162.29" cy="153.91" r="47.9"/><rect class="cls-1" x="114.39" y="153.91" width="95.79" height="73.48"/><path class="cls-1" d="M60.2,73.86l16.21,12.52s-23.55,13.16.12,29.15c20.4,13.8-27.57,0-27.57,0"/><rect class="cls-1" x="114.39" y="3.27" width="95.79" height="89.29" rx="7.28" ry="7.28"/></svg>